<svg xmlns="http://www.w3.org/2000/svg" aria-hidden="true" style="position:absolute;width:0;height:0;overflow:hidden">
  <defs>
    <symbol id="icon-facebook" viewBox="0 0 32 32">
      <path
        d="M19.52 4.64h.96v3.6h-1.2c-.48 0-.96 0-1.2.24s-.24.48-.24 1.04v1.28h2.64v3.04h-2.64v13.2h-4.08V13.76H11.6v-3.04h2.16V9.68c0-1.76.24-3.04.72-3.6.72-1.04 2.16-1.52 4.32-1.52.24.08.48.08.72.08z" />
    </symbol>
    <symbol id="icon-instagram" viewBox="0 0 32 32">
      <path
        d="M28.718 10.756a9.264 9.264 0 0 0-.596-3.145 6.547 6.547 0 0 0-3.743-3.737 9.42 9.42 0 0 0-3.108-.596c-1.368-.061-1.801-.078-5.273-.078s-3.916 0-5.274.078a9.413 9.413 0 0 0-3.106.596 6.541 6.541 0 0 0-3.743 3.737 9.288 9.288 0 0 0-.596 3.101c-.061 1.367-.08 1.8-.08 5.265s0 3.909.08 5.265a9.335 9.335 0 0 0 .596 3.104 6.548 6.548 0 0 0 3.744 3.735 9.37 9.37 0 0 0 3.106.639c1.369.061 1.803.08 5.274.08s3.916 0 5.274-.08a9.362 9.362 0 0 0 3.108-.595 6.555 6.555 0 0 0 3.743-3.737 9.35 9.35 0 0 0 .596-3.104c.061-1.365.08-1.798.08-5.265-.003-3.466-.003-3.906-.082-5.264zM15.99 22.531c-3.631 0-6.572-2.936-6.572-6.561s2.941-6.561 6.572-6.561c3.628 0 6.572 2.936 6.572 6.561s-2.944 6.561-6.572 6.561zm6.834-11.835a1.53 1.53 0 1 1 0-3.06 1.53 1.53 0 1 1 0 3.06z" />
      <path d="M15.992 19.976a4.004 4.004 0 1 0 0-8.009 4.004 4.004 0 0 0 0 8.009z" />
    </symbol>
    <symbol id="icon-youtube" viewBox="0 0 32 32">
      <path
        d="M24.24 6c-1.36-.08-4.16-.16-8.4-.16h-.56c-4.08 0-6.8.08-8.16.24-1.84.16-3.12.64-3.84 1.28-.64.56-1.12 1.6-1.28 2.96-.08.88-.16 2.72-.16 5.52v.4c0 2.64.08 4.48.24 5.36.24 1.28.64 2.24 1.44 2.8.8.64 2.16 1.04 4.08 1.2 1.36.08 4.16.16 8.4.16h.56c4.08 0 6.8-.08 8.16-.24 1.84-.16 3.12-.64 3.84-1.28.64-.56 1.12-1.6 1.28-2.96.08-.88.16-2.72.16-5.52v-.4c0-2.64-.08-4.48-.24-5.36-.24-1.28-.64-2.24-1.44-2.8-.8-.64-2.16-1.04-4.08-1.2zm-3.12 9.84-8.8 5.28V10.56l8.8 5.28z" />
    </symbol>
    <symbol id="icon-fuits-btn" viewBox="0 0 32 32">
      <path d="M32 4.741 27.259 0v23.704L3.555 0-.001 3.556 23.703 27.26H-.001l4.741 4.741h27.259V4.742z" />
    </symbol>
    <symbol id="icon-logo" viewBox="0 0 32 32">
      <path
        d="M28.313 1.237h-3.774c-1.164 0-2.108.925-2.108 2.066v3.698c0 1.141.944 2.066 2.108 2.066h3.774c1.164 0 2.108-.925 2.108-2.066V3.303c0-1.141-.944-2.066-2.108-2.066zM7.276 22.626H3.212c-1.254 0-2.271.925-2.271 2.066v3.698c0 1.141 1.017 2.066 2.271 2.066h4.064c1.254 0 2.271-.925 2.271-2.066v-3.698c0-1.141-1.017-2.066-2.271-2.066zM6.823 11.842H3.049c-1.164 0-2.108.925-2.108 2.066v3.698c0 1.141.944 2.066 2.109 2.066h3.773c1.164 0 2.108-.925 2.108-2.066v-3.698c0-1.141-.944-2.066-2.108-2.066zM17.662 22.568h-3.774c-1.164 0-2.108.925-2.108 2.066v3.698c0 1.141.944 2.066 2.109 2.066h3.773c1.165 0 2.109-.925 2.109-2.066v-3.698c0-1.141-.944-2.066-2.109-2.066zM6.823 1.022H3.049c-1.164 0-2.108.925-2.108 2.066v3.698c0 1.141.944 2.066 2.109 2.066h3.773c1.164 0 2.108-.925 2.108-2.066V3.088c0-1.141-.944-2.066-2.108-2.066zM17.954 11.951H14.18c-1.164 0-2.108.925-2.108 2.066v3.698c0 1.141.944 2.066 2.109 2.066h3.773c1.165 0 2.108-.925 2.108-2.066v-3.698c0-1.141-.944-2.066-2.108-2.066zM28.549 22.568h-3.774c-1.164 0-2.108.925-2.108 2.066v3.698c0 1.141.944 2.066 2.108 2.066h3.774c1.164 0 2.108-.925 2.108-2.066v-3.698c0-1.141-.944-2.066-2.108-2.066zM17.497 1.152h-3.774c-1.164 0-2.108.925-2.108 2.066v3.698c0 1.141.944 2.066 2.109 2.066h3.773c1.164 0 2.108-.926 2.108-2.067V3.218c0-1.141-.944-2.066-2.108-2.066zM28.277 12.165h-3.774c-1.164 0-2.108.925-2.108 2.066v3.698c0 1.141.944 2.066 2.108 2.066h3.774c1.164 0 2.108-.925 2.108-2.066v-3.698c0-1.141-.944-2.066-2.108-2.066z" />
    </symbol>
    <symbol id="icon-order-close" viewBox="0 0 32 32">
      <path stroke-linecap="round" stroke-linejoin="round" stroke-width="3.429" d="M24 8 8 24M8 8l16 16" />
    </symbol>
    <symbol id="icon-order-mark" viewBox="0 0 32 32">
      <path
        d="M26.151 1.405a3.2 3.2 0 1 1 5.297 3.591l-17.356 25.6c-1.269 1.872-4.028 1.872-5.297 0L.551 18.436a3.199 3.199 0 1 1 5.297-3.591l5.595 8.253L26.15 1.405z" />
    </symbol>
    <symbol id="icon-window-close" viewBox="0 0 32 32">
      <path stroke-linecap="round" stroke-linejoin="round" stroke-width="2.429" d="M24 8 8 24M8 8l16 16" />
    </symbol>
    <symbol id="icon-header-packet" viewBox="0 0 32 32">
      <path
        d="M25.333 9.333h-4V8a5.332 5.332 0 1 0-10.666 0v1.333h-4a1.333 1.333 0 0 0-1.334 1.333v14.667a4.003 4.003 0 0 0 4 4h13.333a4 4 0 0 0 4-4V10.666a1.333 1.333 0 0 0-1.333-1.333zM13.333 8a2.668 2.668 0 0 1 5.334 0v1.333h-5.333V8zM24 25.333a1.333 1.333 0 0 1-1.333 1.334H9.334A1.334 1.334 0 0 1 8 25.333V12h2.667v1.333a1.335 1.335 0 0 0 2.277.943c.25-.25.39-.589.39-.943V12h5.333v1.333a1.334 1.334 0 0 0 2.667 0V12h2.667v13.333z" />
    </symbol>
    <symbol id="icon-mob-menu" viewBox="0 0 32 32">
      <path
        d="M2.667 7.993c0-.733.595-1.327 1.327-1.327h10.68a1.326 1.326 0 0 1 0 2.654H3.994a1.326 1.326 0 0 1-1.327-1.327zm0 8.007c0-.733.595-1.327 1.327-1.327h24.013a1.326 1.326 0 0 1 0 2.654H3.994A1.326 1.326 0 0 1 2.667 16zm1.326 6.68a1.326 1.326 0 0 0 0 2.654h16.013a1.326 1.326 0 0 0 0-2.654H3.993z" />
    </symbol>
    <symbol id="icon-basket" viewBox="0 0 24 24">
      <path fill-rule="evenodd"
        d="M9.612 6.084C9.16 6.711 9 7.494 9 8V9H15V8C15 7.493 14.84 6.711 14.389 6.084C13.974 5.508 13.274 5 12 5C10.726 5 10.026 5.508 9.612 6.084ZM17 9V8C17 7.173 16.76 5.956 16.012 4.916C15.226 3.825 13.926 3 12 3C10.074 3 8.774 3.825 7.988 4.916C7.24 5.956 7 7.173 7 8V9H3C2.73478 9 2.48043 9.10536 2.29289 9.29289C2.10536 9.48043 2 9.73478 2 10C2 10.2652 2.10536 10.5196 2.29289 10.7071C2.48043 10.8946 2.73478 11 3 11H3.095L4.005 20.1C4.02979 20.3467 4.14532 20.5753 4.32917 20.7416C4.51302 20.9079 4.75209 21 5 21H19C19.2479 21 19.487 20.9079 19.6708 20.7416C19.8547 20.5753 19.9702 20.3467 19.995 20.1L20.905 11H21C21.2652 11 21.5196 10.8946 21.7071 10.7071C21.8946 10.5196 22 10.2652 22 10C22 9.73478 21.8946 9.48043 21.7071 9.29289C21.5196 9.10536 21.2652 9 21 9H17ZM9 14C9 13.7348 8.89464 13.4804 8.70711 13.2929C8.51957 13.1054 8.26522 13 8 13C7.73478 13 7.48043 13.1054 7.29289 13.2929C7.10536 13.4804 7 13.7348 7 14V16C7 16.2652 7.10536 16.5196 7.29289 16.7071C7.48043 16.8946 7.73478 17 8 17C8.26522 17 8.51957 16.8946 8.70711 16.7071C8.89464 16.5196 9 16.2652 9 16V14ZM13 14C13 13.7348 12.8946 13.4804 12.7071 13.2929C12.5196 13.1054 12.2652 13 12 13C11.7348 13 11.4804 13.1054 11.2929 13.2929C11.1054 13.4804 11 13.7348 11 14V16C11 16.2652 11.1054 16.5196 11.2929 16.7071C11.4804 16.8946 11.7348 17 12 17C12.2652 17 12.5196 16.8946 12.7071 16.7071C12.8946 16.5196 13 16.2652 13 16V14ZM17 14C17 13.7348 16.8946 13.4804 16.7071 13.2929C16.5196 13.1054 16.2652 13 16 13C15.7348 13 15.4804 13.1054 15.2929 13.2929C15.1054 13.4804 15 13.7348 15 14V16C15 16.2652 15.1054 16.5196 15.2929 16.7071C15.4804 16.8946 15.7348 17 16 17C16.2652 17 16.5196 16.8946 16.7071 16.7071C16.8946 16.5196 17 16.2652 17 16V14Z" />
    </symbol>
    <symbol id="icon-icon_close" viewBox="0 0 32 32">

      <path stroke-linejoin="round" stroke-linecap="round" stroke-miterlimit="4" stroke-width="2.2857" d="M24 8l-16 16">
      </path>
      <path stroke-linejoin="round" stroke-linecap="round" stroke-miterlimit="4" stroke-width="2.2857" d="M8 8l16 16">
      </path>

<path stroke-linejoin="round" stroke-linecap="round" stroke-miterlimit="4" stroke-width="2.2857" d="M24 8l-16 16"></path>
<path stroke-linejoin="round" stroke-linecap="round" stroke-miterlimit="4" stroke-width="2.2857" d="M8 8l16 16"></path>
</symbol>
    <symbol id="icon-basket-heder" viewBox="0 0 27 32">
       <path fill="#ae1332" style="fill: var(--color1, #ae1332)" d="M24.222 8.222h-4.667v-1.556c0-1.65-0.656-3.233-1.823-4.4s-2.749-1.822-4.4-1.822c-1.65 0-3.233 0.656-4.4 1.822s-1.822 2.75-1.822 4.4v1.556h-4.667c-0.413 0-0.808 0.164-1.1 0.456s-0.456 0.687-0.456 1.1v17.111c0 1.238 0.492 2.425 1.367 3.3s2.062 1.367 3.3 1.367h15.555c1.238 0 2.425-0.492 3.3-1.367s1.367-2.062 1.367-3.3v-17.111c0-0.413-0.164-0.808-0.456-1.1s-0.687-0.456-1.1-0.456zM10.222 6.667c0-0.825 0.328-1.616 0.911-2.2s1.375-0.911 2.2-0.911c0.825 0 1.616 0.328 2.2 0.911s0.911 1.375 0.911 2.2v1.556h-6.222v-1.556zM22.667 26.889c0 0.413-0.164 0.808-0.456 1.1s-0.687 0.456-1.1 0.456h-15.555c-0.413 0-0.808-0.164-1.1-0.456s-0.456-0.687-0.456-1.1v-15.556h3.111v1.556c0 0.413 0.164 0.808 0.456 1.1s0.687 0.456 1.1 0.456 0.808-0.164 1.1-0.456c0.292-0.292 0.456-0.687 0.456-1.1v-1.556h6.222v1.556c0 0.413 0.164 0.808 0.456 1.1s0.687 0.456 1.1 0.456 0.808-0.164 1.1-0.456c0.292-0.292 0.456-0.687 0.456-1.1v-1.556h3.111v15.556z"></path>
    </symbol>
  </defs>
</svg>