
<svg xmlns="http://www.w3.org/2000/svg" aria-hidden="true" style="position:absolute;width:0;height:0;overflow:hidden">
  <defs>
    <symbol id="icon-facebook" viewBox="0 0 32 32">
      <path d="M19.52 4.64h.96v3.6h-1.2c-.48 0-.96 0-1.2.24s-.24.48-.24 1.04v1.28h2.64v3.04h-2.64v13.2h-4.08V13.76H11.6v-3.04h2.16V9.68c0-1.76.24-3.04.72-3.6.72-1.04 2.16-1.52 4.32-1.52.24.08.48.08.72.08z"/>
    </symbol>
    <symbol id="icon-instagram" viewBox="0 0 32 32">
      <path d="M28.718 10.756a9.264 9.264 0 0 0-.596-3.145 6.547 6.547 0 0 0-3.743-3.737 9.42 9.42 0 0 0-3.108-.596c-1.368-.061-1.801-.078-5.273-.078s-3.916 0-5.274.078a9.413 9.413 0 0 0-3.106.596 6.541 6.541 0 0 0-3.743 3.737 9.288 9.288 0 0 0-.596 3.101c-.061 1.367-.08 1.8-.08 5.265s0 3.909.08 5.265a9.335 9.335 0 0 0 .596 3.104 6.548 6.548 0 0 0 3.744 3.735 9.37 9.37 0 0 0 3.106.639c1.369.061 1.803.08 5.274.08s3.916 0 5.274-.08a9.362 9.362 0 0 0 3.108-.595 6.555 6.555 0 0 0 3.743-3.737 9.35 9.35 0 0 0 .596-3.104c.061-1.365.08-1.798.08-5.265-.003-3.466-.003-3.906-.082-5.264zM15.99 22.531c-3.631 0-6.572-2.936-6.572-6.561s2.941-6.561 6.572-6.561c3.628 0 6.572 2.936 6.572 6.561s-2.944 6.561-6.572 6.561zm6.834-11.835a1.53 1.53 0 1 1 0-3.06 1.53 1.53 0 1 1 0 3.06z"/>
      <path d="M15.992 19.976a4.004 4.004 0 1 0 0-8.009 4.004 4.004 0 0 0 0 8.009z"/>
    </symbol>
    <symbol id="icon-youtube" viewBox="0 0 32 32">
      <path d="M24.24 6c-1.36-.08-4.16-.16-8.4-.16h-.56c-4.08 0-6.8.08-8.16.24-1.84.16-3.12.64-3.84 1.28-.64.56-1.12 1.6-1.28 2.96-.08.88-.16 2.72-.16 5.52v.4c0 2.64.08 4.48.24 5.36.24 1.28.64 2.24 1.44 2.8.8.64 2.16 1.04 4.08 1.2 1.36.08 4.16.16 8.4.16h.56c4.08 0 6.8-.08 8.16-.24 1.84-.16 3.12-.64 3.84-1.28.64-.56 1.12-1.6 1.28-2.96.08-.88.16-2.72.16-5.52v-.4c0-2.64-.08-4.48-.24-5.36-.24-1.28-.64-2.24-1.44-2.8-.8-.64-2.16-1.04-4.08-1.2zm-3.12 9.84-8.8 5.28V10.56l8.8 5.28z"/>
    </symbol>
    <symbol id="icon-fuits-btn" viewBox="0 0 32 32">
      <path d="M32 4.741 27.259 0v23.704L3.555 0-.001 3.556 23.703 27.26H-.001l4.741 4.741h27.259V4.742z"/>
    </symbol>
    <symbol id="icon-logo" viewBox="0 0 32 32">
      <path d="M28.313 1.237h-3.774c-1.164 0-2.108.925-2.108 2.066v3.698c0 1.141.944 2.066 2.108 2.066h3.774c1.164 0 2.108-.925 2.108-2.066V3.303c0-1.141-.944-2.066-2.108-2.066zM7.276 22.626H3.212c-1.254 0-2.271.925-2.271 2.066v3.698c0 1.141 1.017 2.066 2.271 2.066h4.064c1.254 0 2.271-.925 2.271-2.066v-3.698c0-1.141-1.017-2.066-2.271-2.066zM6.823 11.842H3.049c-1.164 0-2.108.925-2.108 2.066v3.698c0 1.141.944 2.066 2.109 2.066h3.773c1.164 0 2.108-.925 2.108-2.066v-3.698c0-1.141-.944-2.066-2.108-2.066zM17.662 22.568h-3.774c-1.164 0-2.108.925-2.108 2.066v3.698c0 1.141.944 2.066 2.109 2.066h3.773c1.165 0 2.109-.925 2.109-2.066v-3.698c0-1.141-.944-2.066-2.109-2.066zM6.823 1.022H3.049c-1.164 0-2.108.925-2.108 2.066v3.698c0 1.141.944 2.066 2.109 2.066h3.773c1.164 0 2.108-.925 2.108-2.066V3.088c0-1.141-.944-2.066-2.108-2.066zM17.954 11.951H14.18c-1.164 0-2.108.925-2.108 2.066v3.698c0 1.141.944 2.066 2.109 2.066h3.773c1.165 0 2.108-.925 2.108-2.066v-3.698c0-1.141-.944-2.066-2.108-2.066zM28.549 22.568h-3.774c-1.164 0-2.108.925-2.108 2.066v3.698c0 1.141.944 2.066 2.108 2.066h3.774c1.164 0 2.108-.925 2.108-2.066v-3.698c0-1.141-.944-2.066-2.108-2.066zM17.497 1.152h-3.774c-1.164 0-2.108.925-2.108 2.066v3.698c0 1.141.944 2.066 2.109 2.066h3.773c1.164 0 2.108-.926 2.108-2.067V3.218c0-1.141-.944-2.066-2.108-2.066zM28.277 12.165h-3.774c-1.164 0-2.108.925-2.108 2.066v3.698c0 1.141.944 2.066 2.108 2.066h3.774c1.164 0 2.108-.925 2.108-2.066v-3.698c0-1.141-.944-2.066-2.108-2.066z"/>
    </symbol>
    <symbol id="icon-order-close" viewBox="0 0 32 32">
      <path stroke-linecap="round" stroke-linejoin="round" stroke-width="3.429" d="M24 8 8 24M8 8l16 16"/>
    </symbol>
    <symbol id="icon-order-mark" viewBox="0 0 32 32">
      <path d="M26.151 1.405a3.2 3.2 0 1 1 5.297 3.591l-17.356 25.6c-1.269 1.872-4.028 1.872-5.297 0L.551 18.436a3.199 3.199 0 1 1 5.297-3.591l5.595 8.253L26.15 1.405z"/>
    </symbol>
    <symbol id="icon-window-close" viewBox="0 0 32 32">
      <path stroke-linecap="round" stroke-linejoin="round" stroke-width="2.429" d="M24 8 8 24M8 8l16 16"/>
    </symbol>
    <symbol id="icon-header-packet" viewBox="0 0 32 32">
      <path d="M25.333 9.333h-4V8a5.332 5.332 0 1 0-10.666 0v1.333h-4a1.333 1.333 0 0 0-1.334 1.333v14.667a4.003 4.003 0 0 0 4 4h13.333a4 4 0 0 0 4-4V10.666a1.333 1.333 0 0 0-1.333-1.333zM13.333 8a2.668 2.668 0 0 1 5.334 0v1.333h-5.333V8zM24 25.333a1.333 1.333 0 0 1-1.333 1.334H9.334A1.334 1.334 0 0 1 8 25.333V12h2.667v1.333a1.335 1.335 0 0 0 2.277.943c.25-.25.39-.589.39-.943V12h5.333v1.333a1.334 1.334 0 0 0 2.667 0V12h2.667v13.333z"/>
    </symbol>
    <symbol id="icon-mob-menu" viewBox="0 0 32 32">
      <path d="M2.667 7.993c0-.733.595-1.327 1.327-1.327h10.68a1.326 1.326 0 0 1 0 2.654H3.994a1.326 1.326 0 0 1-1.327-1.327zm0 8.007c0-.733.595-1.327 1.327-1.327h24.013a1.326 1.326 0 0 1 0 2.654H3.994A1.326 1.326 0 0 1 2.667 16zm1.326 6.68a1.326 1.326 0 0 0 0 2.654h16.013a1.326 1.326 0 0 0 0-2.654H3.993z"/>
    </symbol>
    <symbol xmlns="http://www.w3.org/2000/svg" id="icon-basket" fill="none" viewBox="0 0 16 16">
      <path stroke="#AE1332" d="M2.557 15.5.59 3.7h14.82l-1.967 11.8H2.557Z"/>
      <mask id="path-2-inside-1_107_43" fill="#fff">
        <path d="M4.267 3.733a3.733 3.733 0 0 1 7.466 0V6.4H4.267V3.733Z"/>
      </mask>
      <path fill="#AE1332" d="M3.267 3.733a4.733 4.733 0 0 1 9.466 0h-2a2.733 2.733 0 0 0-5.466 0h-2ZM11.733 6.4H4.267h7.466Zm-8.466 0V3.733A4.733 4.733 0 0 1 8-1v2a2.733 2.733 0 0 0-2.733 2.733V6.4h-2ZM8-1a4.733 4.733 0 0 1 4.733 4.733V6.4h-2V3.733A2.733 2.733 0 0 0 8 1v-2Z" mask="url(#path-2-inside-1_107_43)"/>
    </symbol>
  </defs>
</svg>